<mxfile host="app.diagrams.net" modified="2024-04-24T18:19:17.079Z" agent="Mozilla/5.0 (Windows NT 10.0; Win64; x64) AppleWebKit/537.36 (KHTML, like Gecko) Chrome/124.0.0.0 Safari/537.36" etag="vTMYJyRJP4azw0B_VDUE" version="24.3.0" type="github" pages="16">
  <diagram name="ex1" id="MACvEm5vD2n90a-4zH5U">
    <mxGraphModel dx="1373" dy="738" grid="1" gridSize="10" guides="1" tooltips="1" connect="1" arrows="1" fold="1" page="1" pageScale="1" pageWidth="827" pageHeight="1169" math="0" shadow="0">
      <root>
        <mxCell id="0" />
        <mxCell id="1" parent="0" />
        <mxCell id="RMLSguqWzt0p5m9J9SVJ-1" value="&lt;h1 style=&quot;margin-top: 0px;&quot;&gt;&lt;font style=&quot;font-size: 10px;&quot;&gt;1. Ler quatro números e determinar qual o maior deles&lt;/font&gt;&lt;br&gt;&lt;/h1&gt;" style="text;html=1;whiteSpace=wrap;overflow=hidden;rounded=0;" vertex="1" parent="1">
          <mxGeometry width="280" height="40" as="geometry" />
        </mxCell>
        <mxCell id="tX35d6ZJ2LsXarCm4lao-2" style="edgeStyle=orthogonalEdgeStyle;rounded=0;orthogonalLoop=1;jettySize=auto;html=1;entryX=0.5;entryY=0;entryDx=0;entryDy=0;" edge="1" parent="1" source="zSyD8svrSJGEI2itMsNa-3" target="tX35d6ZJ2LsXarCm4lao-1">
          <mxGeometry relative="1" as="geometry" />
        </mxCell>
        <mxCell id="zSyD8svrSJGEI2itMsNa-3" value="inicio" style="rounded=1;whiteSpace=wrap;html=1;arcSize=50;" vertex="1" parent="1">
          <mxGeometry x="310" y="80" width="90" height="20" as="geometry" />
        </mxCell>
        <mxCell id="zSyD8svrSJGEI2itMsNa-4" value="fim" style="rounded=1;whiteSpace=wrap;html=1;arcSize=50;" vertex="1" parent="1">
          <mxGeometry x="310" y="720" width="90" height="20" as="geometry" />
        </mxCell>
        <mxCell id="tX35d6ZJ2LsXarCm4lao-4" style="edgeStyle=orthogonalEdgeStyle;rounded=0;orthogonalLoop=1;jettySize=auto;html=1;entryX=0.5;entryY=0;entryDx=0;entryDy=0;" edge="1" parent="1" source="tX35d6ZJ2LsXarCm4lao-1" target="tX35d6ZJ2LsXarCm4lao-3">
          <mxGeometry relative="1" as="geometry" />
        </mxCell>
        <mxCell id="tX35d6ZJ2LsXarCm4lao-1" value="&quot;introduza 4 números&quot;" style="shape=document;whiteSpace=wrap;html=1;boundedLbl=1;" vertex="1" parent="1">
          <mxGeometry x="295" y="150" width="120" height="60" as="geometry" />
        </mxCell>
        <mxCell id="tX35d6ZJ2LsXarCm4lao-3" value="ler&lt;div&gt;a,b,c,d&lt;/div&gt;" style="shape=parallelogram;perimeter=parallelogramPerimeter;whiteSpace=wrap;html=1;fixedSize=1;" vertex="1" parent="1">
          <mxGeometry x="295" y="250" width="120" height="40" as="geometry" />
        </mxCell>
        <mxCell id="tX35d6ZJ2LsXarCm4lao-5" value="if&lt;div&gt;a&amp;gt;b&lt;/div&gt;" style="rhombus;whiteSpace=wrap;html=1;" vertex="1" parent="1">
          <mxGeometry x="320" y="330" width="80" height="60" as="geometry" />
        </mxCell>
      </root>
    </mxGraphModel>
  </diagram>
  <diagram id="Kore_s-wnp_P-uaSSuGi" name="ex2">
    <mxGraphModel dx="941" dy="506" grid="1" gridSize="10" guides="1" tooltips="1" connect="1" arrows="1" fold="1" page="1" pageScale="1" pageWidth="827" pageHeight="1169" math="0" shadow="0">
      <root>
        <mxCell id="0" />
        <mxCell id="1" parent="0" />
        <mxCell id="Ug6XeT_-6mQzhaUV-4ou-1" value="&lt;h1 style=&quot;margin-top: 0px;&quot;&gt;&lt;div style=&quot;&quot;&gt;&lt;span style=&quot;font-size: 10px; background-color: initial;&quot;&gt;2. Pretende-se calcular as ajudas de custo a pagar aos funcionários de uma empresa que tenham de&lt;/span&gt;&lt;/div&gt;&lt;font style=&quot;font-size: 10px;&quot;&gt;&lt;div style=&quot;&quot;&gt;&lt;span style=&quot;background-color: initial;&quot;&gt;se deslocar em viatura própria para serviço da empresa. O valor é em função da distância&lt;/span&gt;&lt;/div&gt;&lt;div style=&quot;&quot;&gt;&lt;span style=&quot;background-color: initial;&quot;&gt;percorrida e do valor por quilómetro que por sua vez, é função da motorização do veículo (cilindrada do&lt;/span&gt;&lt;/div&gt;&lt;div style=&quot;&quot;&gt;&lt;span style=&quot;background-color: initial;&quot;&gt;motor), como se indica a seguir:&lt;/span&gt;&lt;/div&gt;&lt;div style=&quot;&quot;&gt;&lt;span style=&quot;background-color: initial;&quot;&gt;- Motor de cilindrada inferior a 2000 cm³ será financiado a 0.3 € por km.&lt;/span&gt;&lt;/div&gt;&lt;div style=&quot;&quot;&gt;&lt;span style=&quot;background-color: initial;&quot;&gt;- Motor de cilindrada superior ou igual a 2000 cm³ será financiado a 0.4 € por km.&lt;/span&gt;&lt;/div&gt;&lt;div style=&quot;&quot;&gt;&lt;span style=&quot;background-color: initial;&quot;&gt;Ajuda de custo = valor por quilometro * distância percorrida.&lt;/span&gt;&lt;/div&gt;&lt;/font&gt;&lt;div style=&quot;&quot;&gt;&lt;span style=&quot;font-size: 24px;&quot;&gt;&lt;br&gt;&lt;/span&gt;&lt;/div&gt;&lt;/h1&gt;" style="text;html=1;whiteSpace=wrap;overflow=hidden;rounded=0;" vertex="1" parent="1">
          <mxGeometry x="10" width="520" height="120" as="geometry" />
        </mxCell>
        <mxCell id="3BIK9h8PDo-s86ATVaJ9-1" value="inicio" style="rounded=1;whiteSpace=wrap;html=1;arcSize=50;" vertex="1" parent="1">
          <mxGeometry x="340" y="120" width="90" height="20" as="geometry" />
        </mxCell>
        <mxCell id="3BIK9h8PDo-s86ATVaJ9-2" value="fim" style="rounded=1;whiteSpace=wrap;html=1;arcSize=50;" vertex="1" parent="1">
          <mxGeometry x="340" y="760" width="90" height="20" as="geometry" />
        </mxCell>
      </root>
    </mxGraphModel>
  </diagram>
  <diagram id="D0AtpUrgJ2Cge4g3Rvi8" name="ex3">
    <mxGraphModel dx="1647" dy="886" grid="1" gridSize="10" guides="1" tooltips="1" connect="1" arrows="1" fold="1" page="1" pageScale="1" pageWidth="827" pageHeight="1169" math="0" shadow="0">
      <root>
        <mxCell id="0" />
        <mxCell id="1" parent="0" />
        <mxCell id="fcmkbM9azqzakprmewL0-1" value="inicio" style="rounded=1;whiteSpace=wrap;html=1;arcSize=50;" vertex="1" parent="1">
          <mxGeometry x="310" y="80" width="90" height="20" as="geometry" />
        </mxCell>
        <mxCell id="fcmkbM9azqzakprmewL0-2" value="fim" style="rounded=1;whiteSpace=wrap;html=1;arcSize=50;" vertex="1" parent="1">
          <mxGeometry x="310" y="720" width="90" height="20" as="geometry" />
        </mxCell>
      </root>
    </mxGraphModel>
  </diagram>
  <diagram id="ro0qpGjQ7NOFy_2b7bIl" name="ex4">
    <mxGraphModel dx="1647" dy="886" grid="1" gridSize="10" guides="1" tooltips="1" connect="1" arrows="1" fold="1" page="1" pageScale="1" pageWidth="827" pageHeight="1169" math="0" shadow="0">
      <root>
        <mxCell id="0" />
        <mxCell id="1" parent="0" />
        <mxCell id="EEg3TNm1DG_J7pnGXZkf-1" value="inicio" style="rounded=1;whiteSpace=wrap;html=1;arcSize=50;" vertex="1" parent="1">
          <mxGeometry x="310" y="80" width="90" height="20" as="geometry" />
        </mxCell>
        <mxCell id="EEg3TNm1DG_J7pnGXZkf-2" value="fim" style="rounded=1;whiteSpace=wrap;html=1;arcSize=50;" vertex="1" parent="1">
          <mxGeometry x="310" y="720" width="90" height="20" as="geometry" />
        </mxCell>
      </root>
    </mxGraphModel>
  </diagram>
  <diagram id="dsvCinw_7wpz3-2eTMc3" name="ex5">
    <mxGraphModel dx="1647" dy="886" grid="1" gridSize="10" guides="1" tooltips="1" connect="1" arrows="1" fold="1" page="1" pageScale="1" pageWidth="827" pageHeight="1169" math="0" shadow="0">
      <root>
        <mxCell id="0" />
        <mxCell id="1" parent="0" />
        <mxCell id="C5Zo8GzPn1_HC-WiF9Ri-1" value="inicio" style="rounded=1;whiteSpace=wrap;html=1;arcSize=50;" vertex="1" parent="1">
          <mxGeometry x="310" y="80" width="90" height="20" as="geometry" />
        </mxCell>
        <mxCell id="C5Zo8GzPn1_HC-WiF9Ri-2" value="fim" style="rounded=1;whiteSpace=wrap;html=1;arcSize=50;" vertex="1" parent="1">
          <mxGeometry x="310" y="720" width="90" height="20" as="geometry" />
        </mxCell>
      </root>
    </mxGraphModel>
  </diagram>
  <diagram id="ZkXHBV0_AZ4BszhqCuEN" name="ex6">
    <mxGraphModel dx="1647" dy="886" grid="1" gridSize="10" guides="1" tooltips="1" connect="1" arrows="1" fold="1" page="1" pageScale="1" pageWidth="827" pageHeight="1169" math="0" shadow="0">
      <root>
        <mxCell id="0" />
        <mxCell id="1" parent="0" />
        <mxCell id="eQjc-Bxd3L731v1bcgWw-1" value="inicio" style="rounded=1;whiteSpace=wrap;html=1;arcSize=50;" vertex="1" parent="1">
          <mxGeometry x="310" y="80" width="90" height="20" as="geometry" />
        </mxCell>
        <mxCell id="eQjc-Bxd3L731v1bcgWw-2" value="fim" style="rounded=1;whiteSpace=wrap;html=1;arcSize=50;" vertex="1" parent="1">
          <mxGeometry x="310" y="720" width="90" height="20" as="geometry" />
        </mxCell>
      </root>
    </mxGraphModel>
  </diagram>
  <diagram id="Y7QHLiELHJ5QhM5IbxW0" name="ex7">
    <mxGraphModel dx="1647" dy="886" grid="1" gridSize="10" guides="1" tooltips="1" connect="1" arrows="1" fold="1" page="1" pageScale="1" pageWidth="827" pageHeight="1169" math="0" shadow="0">
      <root>
        <mxCell id="0" />
        <mxCell id="1" parent="0" />
        <mxCell id="OYlyBAt_UTg4WNfDKWm1-1" value="inicio" style="rounded=1;whiteSpace=wrap;html=1;arcSize=50;" vertex="1" parent="1">
          <mxGeometry x="310" y="80" width="90" height="20" as="geometry" />
        </mxCell>
        <mxCell id="OYlyBAt_UTg4WNfDKWm1-2" value="fim" style="rounded=1;whiteSpace=wrap;html=1;arcSize=50;" vertex="1" parent="1">
          <mxGeometry x="310" y="720" width="90" height="20" as="geometry" />
        </mxCell>
      </root>
    </mxGraphModel>
  </diagram>
  <diagram id="zHj9j2vSrRxEcsQdV_82" name="ex8">
    <mxGraphModel dx="1647" dy="886" grid="1" gridSize="10" guides="1" tooltips="1" connect="1" arrows="1" fold="1" page="1" pageScale="1" pageWidth="827" pageHeight="1169" math="0" shadow="0">
      <root>
        <mxCell id="0" />
        <mxCell id="1" parent="0" />
        <mxCell id="zIehK03uFvnMs2lwv0Bn-1" value="inicio" style="rounded=1;whiteSpace=wrap;html=1;arcSize=50;" vertex="1" parent="1">
          <mxGeometry x="310" y="80" width="90" height="20" as="geometry" />
        </mxCell>
        <mxCell id="zIehK03uFvnMs2lwv0Bn-2" value="fim" style="rounded=1;whiteSpace=wrap;html=1;arcSize=50;" vertex="1" parent="1">
          <mxGeometry x="310" y="720" width="90" height="20" as="geometry" />
        </mxCell>
      </root>
    </mxGraphModel>
  </diagram>
  <diagram id="vPJ-H7gX7KfAklXNPQEV" name="ex9">
    <mxGraphModel dx="1647" dy="886" grid="1" gridSize="10" guides="1" tooltips="1" connect="1" arrows="1" fold="1" page="1" pageScale="1" pageWidth="827" pageHeight="1169" math="0" shadow="0">
      <root>
        <mxCell id="0" />
        <mxCell id="1" parent="0" />
        <mxCell id="u-6mtvItJ1DNr2TFeq3o-1" value="inicio" style="rounded=1;whiteSpace=wrap;html=1;arcSize=50;" vertex="1" parent="1">
          <mxGeometry x="310" y="80" width="90" height="20" as="geometry" />
        </mxCell>
        <mxCell id="u-6mtvItJ1DNr2TFeq3o-2" value="fim" style="rounded=1;whiteSpace=wrap;html=1;arcSize=50;" vertex="1" parent="1">
          <mxGeometry x="310" y="720" width="90" height="20" as="geometry" />
        </mxCell>
      </root>
    </mxGraphModel>
  </diagram>
  <diagram id="KKJWHCMvrPjuBlSUZbSj" name="ex10">
    <mxGraphModel dx="1647" dy="886" grid="1" gridSize="10" guides="1" tooltips="1" connect="1" arrows="1" fold="1" page="1" pageScale="1" pageWidth="827" pageHeight="1169" math="0" shadow="0">
      <root>
        <mxCell id="0" />
        <mxCell id="1" parent="0" />
        <mxCell id="Lh7g97lBaibSjvPFYcJK-1" value="inicio" style="rounded=1;whiteSpace=wrap;html=1;arcSize=50;" vertex="1" parent="1">
          <mxGeometry x="310" y="80" width="90" height="20" as="geometry" />
        </mxCell>
        <mxCell id="Lh7g97lBaibSjvPFYcJK-2" value="fim" style="rounded=1;whiteSpace=wrap;html=1;arcSize=50;" vertex="1" parent="1">
          <mxGeometry x="310" y="720" width="90" height="20" as="geometry" />
        </mxCell>
      </root>
    </mxGraphModel>
  </diagram>
  <diagram id="fHCuYikgLRj2hM4bg0g_" name="ex11">
    <mxGraphModel dx="1647" dy="886" grid="1" gridSize="10" guides="1" tooltips="1" connect="1" arrows="1" fold="1" page="1" pageScale="1" pageWidth="827" pageHeight="1169" math="0" shadow="0">
      <root>
        <mxCell id="0" />
        <mxCell id="1" parent="0" />
        <mxCell id="Qe-14ReR6nkfPPdJzvYR-1" value="inicio" style="rounded=1;whiteSpace=wrap;html=1;arcSize=50;" vertex="1" parent="1">
          <mxGeometry x="310" y="80" width="90" height="20" as="geometry" />
        </mxCell>
        <mxCell id="Qe-14ReR6nkfPPdJzvYR-2" value="fim" style="rounded=1;whiteSpace=wrap;html=1;arcSize=50;" vertex="1" parent="1">
          <mxGeometry x="310" y="720" width="90" height="20" as="geometry" />
        </mxCell>
      </root>
    </mxGraphModel>
  </diagram>
  <diagram id="74sbG2Pwrny_1Ri730MF" name="ex12">
    <mxGraphModel dx="1647" dy="886" grid="1" gridSize="10" guides="1" tooltips="1" connect="1" arrows="1" fold="1" page="1" pageScale="1" pageWidth="827" pageHeight="1169" math="0" shadow="0">
      <root>
        <mxCell id="0" />
        <mxCell id="1" parent="0" />
        <mxCell id="hvTaS6nDVP618721ZDi5-1" value="inicio" style="rounded=1;whiteSpace=wrap;html=1;arcSize=50;" vertex="1" parent="1">
          <mxGeometry x="310" y="80" width="90" height="20" as="geometry" />
        </mxCell>
        <mxCell id="hvTaS6nDVP618721ZDi5-2" value="fim" style="rounded=1;whiteSpace=wrap;html=1;arcSize=50;" vertex="1" parent="1">
          <mxGeometry x="310" y="720" width="90" height="20" as="geometry" />
        </mxCell>
      </root>
    </mxGraphModel>
  </diagram>
  <diagram id="b6c372_YSufn6xo1Nm8J" name="ex13">
    <mxGraphModel dx="1647" dy="886" grid="1" gridSize="10" guides="1" tooltips="1" connect="1" arrows="1" fold="1" page="1" pageScale="1" pageWidth="827" pageHeight="1169" math="0" shadow="0">
      <root>
        <mxCell id="0" />
        <mxCell id="1" parent="0" />
        <mxCell id="U4i128TZdWr1_x3TFOXT-1" value="inicio" style="rounded=1;whiteSpace=wrap;html=1;arcSize=50;" vertex="1" parent="1">
          <mxGeometry x="310" y="80" width="90" height="20" as="geometry" />
        </mxCell>
        <mxCell id="U4i128TZdWr1_x3TFOXT-2" value="fim" style="rounded=1;whiteSpace=wrap;html=1;arcSize=50;" vertex="1" parent="1">
          <mxGeometry x="310" y="720" width="90" height="20" as="geometry" />
        </mxCell>
      </root>
    </mxGraphModel>
  </diagram>
  <diagram id="Nnige6Gt1JvcVKPcHGQT" name="ex14">
    <mxGraphModel dx="1647" dy="886" grid="1" gridSize="10" guides="1" tooltips="1" connect="1" arrows="1" fold="1" page="1" pageScale="1" pageWidth="827" pageHeight="1169" math="0" shadow="0">
      <root>
        <mxCell id="0" />
        <mxCell id="1" parent="0" />
        <mxCell id="e9c_nc8pzlVJAIvS0FeR-1" value="inicio" style="rounded=1;whiteSpace=wrap;html=1;arcSize=50;" vertex="1" parent="1">
          <mxGeometry x="310" y="80" width="90" height="20" as="geometry" />
        </mxCell>
        <mxCell id="e9c_nc8pzlVJAIvS0FeR-2" value="fim" style="rounded=1;whiteSpace=wrap;html=1;arcSize=50;" vertex="1" parent="1">
          <mxGeometry x="310" y="720" width="90" height="20" as="geometry" />
        </mxCell>
      </root>
    </mxGraphModel>
  </diagram>
  <diagram id="j40cj-K1fvgEFv6quPc1" name="ex15">
    <mxGraphModel dx="1647" dy="886" grid="1" gridSize="10" guides="1" tooltips="1" connect="1" arrows="1" fold="1" page="1" pageScale="1" pageWidth="827" pageHeight="1169" math="0" shadow="0">
      <root>
        <mxCell id="0" />
        <mxCell id="1" parent="0" />
        <mxCell id="3UPC5aZZRDZiPkUny_fu-1" value="inicio" style="rounded=1;whiteSpace=wrap;html=1;arcSize=50;" vertex="1" parent="1">
          <mxGeometry x="310" y="80" width="90" height="20" as="geometry" />
        </mxCell>
        <mxCell id="3UPC5aZZRDZiPkUny_fu-2" value="fim" style="rounded=1;whiteSpace=wrap;html=1;arcSize=50;" vertex="1" parent="1">
          <mxGeometry x="310" y="720" width="90" height="20" as="geometry" />
        </mxCell>
      </root>
    </mxGraphModel>
  </diagram>
  <diagram id="Abkx5JkBpNWQmLsfs7nE" name="ex16">
    <mxGraphModel dx="1647" dy="886" grid="1" gridSize="10" guides="1" tooltips="1" connect="1" arrows="1" fold="1" page="1" pageScale="1" pageWidth="827" pageHeight="1169" math="0" shadow="0">
      <root>
        <mxCell id="0" />
        <mxCell id="1" parent="0" />
        <mxCell id="h8MQQO7v2EK7aKIhfoat-1" value="inicio" style="rounded=1;whiteSpace=wrap;html=1;arcSize=50;" vertex="1" parent="1">
          <mxGeometry x="310" y="80" width="90" height="20" as="geometry" />
        </mxCell>
        <mxCell id="h8MQQO7v2EK7aKIhfoat-2" value="fim" style="rounded=1;whiteSpace=wrap;html=1;arcSize=50;" vertex="1" parent="1">
          <mxGeometry x="310" y="720" width="90" height="20" as="geometry" />
        </mxCell>
      </root>
    </mxGraphModel>
  </diagram>
</mxfile>
